<svg xmlns="http://www.w3.org/2000/svg" width="475.886" height="557.737" viewBox="0 0 475.886 557.737"><defs><style>.a{fill:#494949;}.b{fill:#fc9;}.c{fill:#e5e5e5;}.d,.f{opacity:0.22;}.e{fill:#020202;}.g{fill:#444;}.h{fill:#f9963d;}.i{opacity:0.12;}.j{opacity:0.11;}.k{fill:none;stroke:#f9963d;stroke-linecap:round;stroke-width:5px;}</style></defs><g transform="translate(-258.822 -92)"><g transform="translate(-1125.406 -155.469)"><path class="a" d="M1478.29,273.527s1.275.739,3.519,1.918c11.087,5.818,45.8,22.342,66.813,13.256,0,0,8.263-15.174,1.89-21.545s-22.5-17-56.492-12.747-12.465,44.225-12.465,44.225l-1.142-25.107" transform="translate(106.908 12.543)"/><path class="b" d="M1541.163,261.3l-21.083,1.775-1.07-10.538a3.459,3.459,0,0,1,3.134-3.758l14.3-1.294a3.462,3.462,0,0,1,3.758,3.137Z" transform="translate(199.785)"/><path class="c" d="M1487.315,375.6l-12.378,17.312-7.817-2.985c-11.5.58-22.768,4.931-23.208,5.1h-.006l-1.837.968c-5.517,2.917-12.567,1.192-15.751-3.866l-.772-1.207a9.779,9.779,0,0,1-1.49-6.3,10.513,10.513,0,0,1,5.719-8.149l39.046-20.651a3.932,3.932,0,0,1,5.124,1.26l2.653,4.475,5.5,9.26Z" transform="translate(0 226.909)"/><g transform="translate(1609.533 355.365)"><path class="b" d="M1508.375,296.486a18.89,18.89,0,0,1-8.5,3.429,22.649,22.649,0,0,1-6.771,0,18.431,18.431,0,0,1-9.315-4.093l3.888-12.443.36-1.139h15.881l.283.9,3.749,11.987Z" transform="translate(-1483.79 -282.24)"/></g><g class="d" transform="translate(1613.524 356.267)"><path class="e" d="M1501.5,282.531l3.75,11.988-20.17-11.727Z" transform="translate(-1485.076 -282.531)"/></g><g transform="translate(1587.653 288.767)"><path class="b" d="M1543.852,260.778v35.093a33.534,33.534,0,0,1-17.768,29.609,33.16,33.16,0,0,1-7.053,2.8,33.871,33.871,0,0,1-16.421.261c-.035-.006-.065-.016-.1-.025a33.568,33.568,0,0,1-25.768-32.644V260.778Z" transform="translate(-1476.739 -260.778)"/></g><path class="c" d="M1526.946,465.173l-1.08.953a9.765,9.765,0,0,1-8.148,2.333,10.756,10.756,0,0,1-6.777-4.248l-26.516-35.325a3.931,3.931,0,0,1,.44-5.253l3.516-2.923,8.778-7.289,3.892-5.9,19.037,9.511-1.725,8.189c2.38,11.258,8.447,21.709,8.676,22.119l.009.006,1.245,1.654C1532.044,454,1531.436,461.241,1526.946,465.173Z" transform="translate(125.391 336.607)"/><path class="f" d="M1493.346,381.745l3.2-35.828S1491.748,379.138,1493.346,381.745Z" transform="translate(145.154 207.042)"/><path class="g" d="M1654.117,515.331l-40.706,51.787-19.872-10.749s29.839-52.361,42.416-77.356a95.481,95.481,0,0,0,5.309-11.742l.01-.022a5.5,5.5,0,0,0,.149-.68,1.007,1.007,0,0,0-.006-.416c-.3-.906-2.389-5.108-5.421-11.025l-.04-.087c-8.533-16.657-24.452-46.782-29.07-55.5-1.915,21.29-4.3,47-6.066,63.408v.009l-.046.425c-.68,6.3-1.27,11.174-1.694,13.846-2.169,13.536-32.223,6.824-45.312,3.8l-.021-.009c-2.65-.614-4.6-1.071-5.477-1.182-5.216-.655-109.113-49.832-109.113-49.832l15.633-17.588s100.974,29.96,101.62,28.66-13.679-74.26-13.027-94.454c0,0,74.586-15.311,101.942-6.842,0,0,39.738,103.574,40.393,116.607S1654.117,515.331,1654.117,515.331Z" transform="translate(31.872 188.755)"/><path class="c" d="M1471.718,439.592h0L1487.273,294.6l11.388-5.024,4.559-2.014,1.232-.54,4.971-2.194a13.037,13.037,0,0,0,1.037,1.458c2.513,3.153,9.517,9.694,19.751,1.583.658-.521,1.328-1.1,2.01-1.747.432-.4.869-.838,1.3-1.294l4.425,1.021,1.275.295,5.837,1.347,5.4,1.244,18.24,22.8,9.871,118.792-.853,21.079-83.762,5.393H1473.6" transform="translate(100.355 78.57)"/><path class="c" d="M1519.346,253.4c1.3,14.333,3.259,14.333,3.259,14.333l21.535-3.863-3.3-12.422Z" transform="translate(200.52 8.373)"/><path class="h" d="M1541.1,396.1c-.351,1.409.006,9.39.723,20.279l.007.04c1.93,29.4,6.436,80,6.436,80-2.6-.652-46.251,1.3-46.251,1.3,2.606-16.285-12.375-125.072-12.375-125.072,21.495,1.955,17.588-20.195,17.588-20.195l14.33,5.865s63.188-28.011,64.492-28.663-3.258-72.308-3.258-72.308l22.8-3.907s10.746,65.466,12.049,81.75c1.285,16.027-72.835,54.453-76.422,60.634v.006A1,1,0,0,0,1541.1,396.1Z" transform="translate(138.05 12.567)"/><path class="c" d="M1470.49,254.91c-.37,14.386-2.318,14.513-2.318,14.513l-21.74-2.458,2.483-12.611Z" transform="translate(47.176 14.481)"/><path class="h" d="M1525.643,494.058s1.015-47.763,1-77.474v-.019c-.007-11.519-.165-20.319-.605-22.566a2.287,2.287,0,0,0-.087-.351c-1.713-5.089-81.146-38.273-81.146-54.608s5.493-82.458,5.493-82.458l23.04,2.079s1.164,71.793,2.514,72.339,66.573,23.431,66.573,23.431l13.818-6.988s-2.132,22.389,19.136,18.727c0,0,5,108.6,8.894,124.629C1584.27,490.8,1528.188,493.2,1525.643,494.058Z" transform="translate(43.748 19.166)"/><path class="f" d="M1516.178,301.2l7.165,93.8s-45.6,2.607-50.81,2.607l45.6-6.513Z" transform="translate(102.069 113.006)"/><path class="f" d="M1493.526,319.886s3.907,30.618,1.952,34.525h41.692l-37.783-2.6Z" transform="translate(146.218 152.297)"/><path class="i" d="M1493.483,374.751l-.052-.208-.156-.645-.169-.684.449-2.449.424-2.332,2.6-14.214,1.739-5.153L1493.8,375.35Z" transform="translate(145.335 213.665)"/><path class="f" d="M1473.192,300.153l-1.607,24.781c-.007-11.519-.165-20.319-.605-22.566Z" transform="translate(98.802 110.797)"/><path class="a" d="M1552.593,274.333s-4.13,5.055-6.374,6.371c-11.087,6.5-44.839,20.778-65.851,10.622,0,0-10.69-19.233-3.8-25.855,16.939-16.282,22.919-15.851,56.907-11.1s15.819,48.414,15.819,48.414l-3.075-28.449" transform="translate(105.689 8.47)"/><path class="f" d="M1508.229,321.24l-2.613-22.556,2.008,2v.006a1,1,0,0,0-.118.267C1507.156,302.37,1507.513,310.352,1508.229,321.24Z" transform="translate(171.647 107.708)"/><path class="f" d="M1523.1,377.877c-.68,6.3-1.27,11.174-1.694,13.846-2.169,13.536-32.223,6.824-45.312,3.8C1477.185,395.757,1519.846,404.725,1523.1,377.877Z" transform="translate(109.549 274.257)"/><path class="f" d="M1507.895,387.4l.229-.512-.081-.168a1.007,1.007,0,0,0-.006-.416c-.3-.906-2.389-5.108-5.421-11.025l-.04-.087,7.91,10.907-7.91,13.064a95.481,95.481,0,0,0,5.309-11.742Z" transform="translate(165.251 268.606)"/><path class="j" d="M1476.559,361.562l-52.541,23.065a10.513,10.513,0,0,1,5.719-8.149l39.046-20.651a3.932,3.932,0,0,1,5.124,1.26Z" transform="translate(0.038 226.909)"/><path class="j" d="M1517.717,459.523a10.756,10.756,0,0,1-6.777-4.248l-26.516-35.325a3.931,3.931,0,0,1,.44-5.253l3.516-2.923Z" transform="translate(125.391 345.543)"/><path class="b" d="M1.116,0H20.16a1.116,1.116,0,0,1,1.116,1.116V14.184a0,0,0,0,1,0,0H0a0,0,0,0,1,0,0V1.116A1.116,1.116,0,0,1,1.116,0Z" transform="translate(1496.078 255.193)"/><path class="h" d="M1471,419.226v24.825l114.814-3.1,1.459-27.89L1529.958,292h-9.309" transform="translate(98.845 93.651)"/></g><path class="k" d="M113.829,3348.987s49.66-2.181,57.366,38.917,47.092,54.8,47.092,54.8" transform="translate(147.6 -3169.132)"/><path class="k" d="M218.287,3348.987s-49.66-2.181-57.366,38.917-47.092,54.8-47.092,54.8" transform="translate(513.813 -3169.132)"/><path class="k" d="M142.98,3484.28s35.961,13.7,41.1,41.954,47.948,29.968,47.948,29.968" transform="translate(136.429 -3220.984)"/><path class="k" d="M232.027,3484.28s-35.961,13.7-41.1,41.954S142.98,3556.2,142.98,3556.2" transform="translate(482.093 -3220.984)"/></g></svg>