<svg xmlns="http://www.w3.org/2000/svg" xmlns:xlink="http://www.w3.org/1999/xlink" width="475.886" height="595" viewBox="0 0 475.886 595"><defs><style>.a{fill:#e5e5e5;}.b{fill:#fc9;}.c{fill:#5c7776;}.d{fill:#444;}.e{fill:#494949;}.f{opacity:0.22;}.g{fill:#020202;}.h{fill:#f9963d;}.aa,.i,.j,.y,.z{fill:none;}.i,.j{stroke:#020202;}.i,.j,.y,.z{stroke-miterlimit:10;}.j{stroke-width:3.406px;}.k{opacity:0.24;}.l{fill:#efefef;}.m{fill:#72d4f2;}.m,.p{opacity:0.5;}.n{opacity:0.2;fill:url(#a);}.o{fill:#e2e2e2;}.p{fill:#565656;}.q{opacity:0.03;}.r{fill:#f9f9f9;}.s{fill:#6b6b6b;}.t{fill:#f94b4b;}.u{fill:#f9aa69;}.v{fill:#8ece8e;}.w{fill:teal;opacity:0.1;}.x{fill:#fff;}.y,.z{stroke:#fff;stroke-width:4px;}.aa,.z{stroke-linecap:round;}.aa{stroke:#f9963d;stroke-width:5px;}</style><linearGradient id="a" x1="0.5" x2="0.5" y2="1" gradientUnits="objectBoundingBox"><stop offset="0" stop-color="#fff" stop-opacity="0"/><stop offset="0.326" stop-color="#fefdef" stop-opacity="0"/><stop offset="1" stop-color="#f9ee54"/><stop offset="1" stop-color="#f9ee4d"/></linearGradient></defs><g transform="translate(-242.393 -62)"><g transform="translate(437.647 445.99)"><path class="a" d="M1302.953,473.826c-25.247,9.545-79.945,0-79.945,0l-.034-8.153v-.139l-.014-3.433-.18-46.7,0-.429-.022-6.353L1222.542,355l19.167-10.022,3.928-2.336v0l.509-.3,2.829-1.689.924-.546,1.048-.622.543-.326.717-.423,3.061-1.387,15.195.235,2.807,1.543.315.175.831.457.924.509,4.738,2.609.2.108,17.531,9.635,4.646,109.514.146,3.442Z" transform="translate(-1222.542 -337.345)"/></g><g transform="translate(466.042 435.615)"><path class="b" d="M1260.139,344.993a17.4,17.4,0,0,1-7.824,3.154,20.611,20.611,0,0,1-6.236,0,16.945,16.945,0,0,1-8.574-3.767l3.579-11.456.33-1.046h14.622l.258.829,3.452,11.035Z" transform="translate(-1237.505 -331.878)"/></g><g transform="translate(513.105 653.737)"><path class="c" d="M1262.305,446.818Z" transform="translate(-1262.305 -446.818)"/></g><g transform="translate(396.767 576.72)"><path class="d" d="M1355.218,408.732c-15.629-6.509-50.033,4.56-55.409,6.367l-33.788-1.137c-9.187-2.93-39.11-11.644-53.382-5.7-16.977,7.073-10.375,27.353-10.375,27.353s12.106,22.533,45.695,34.371c-1.689.943-2.626,1.476-2.626,1.476l5.188,12.261c.029-.019,1.211-.321,34.857-5.8,30.811,5.014,31.933,5.306,31.961,5.319l5.188-12.261s-.562-.321-1.6-.9c32.806-11.933,44.668-34.009,44.668-34.009S1372.2,415.8,1355.218,408.732Zm-80.326,38.677a73.741,73.741,0,0,0,9.9.943c4.227,0,8.495-.788,9.419-.476-3.424,1.782-5.188,2.721-6.1,3.22-.273.152-.345.19-.241.127l-2.608,1.374-5.239-2.4c-1.972-.949-3.94-1.879-5.877-2.788Z" transform="translate(-1201 -406.233)"/></g><g transform="translate(446.014 653.872)"><path class="c" d="M1227.526,447.468h-.49l-.085-.364.429-.214Zm-.3-.237.1.211Z" transform="translate(-1226.951 -446.889)"/></g><path class="e" d="M1333.453,384.782v58.753a4.887,4.887,0,0,1-1.006,2.966,4.567,4.567,0,0,1-3.644,1.816H1216.649a4.724,4.724,0,0,1-4.649-4.782V384.782a4.761,4.761,0,0,1,2.714-4.332,4.332,4.332,0,0,1,1.936-.45H1328.8A4.724,4.724,0,0,1,1333.453,384.782Z" transform="translate(-794.358 146.937)"/><g class="f" transform="translate(469.717 436.444)"><path class="g" d="M1254.556,332.315l3.452,11.036-18.568-10.8Z" transform="translate(-1239.441 -332.315)"/></g><path class="e" d="M1228.436,309.492s1.139.66,3.143,1.712c9.906,5.2,40.92,19.96,59.688,11.844,0,0,7.384-13.555,1.691-19.248s-20.106-15.182-50.469-11.386-13.005,40.6-13.005,40.6l.85-23.518" transform="translate(-783.098 67.527)"/><g transform="translate(445.9 374.305)"><path class="b" d="M1288.672,299.57v32.3a30.874,30.874,0,0,1-16.356,27.26,30.349,30.349,0,0,1-6.494,2.575,31.09,31.09,0,0,1-15.115.241c-.032-.006-.061-.015-.1-.025a30.9,30.9,0,0,1-23.721-30.052v-32.3Z" transform="translate(-1226.891 -299.57)"/></g><g transform="translate(398.266 450.941)"><path class="h" d="M1279.763,430.708c-.363-11.4-.915-24.089-1.471-35.648v-.01l-.029-.638v-.01c-.19-3.849-.372-7.56-.552-11.054v-.006c-.759-14.842-1.4-25.7-1.4-25.7-12.126.864-12.126-14.781-12.041-17.337v0c0-.146.009-.245.009-.3l0-.044-41.03,14.149s-10.14,8.726-15.8,41.267l-5.659,32.542s6.447,10.177,37.47,10.388l.26,1.4-2.83,24.995a17.616,17.616,0,0,1,4.211-1.366c.231-.047.463-.095.7-.139,13.2-2.452,38,1.5,38,1.5C1280.414,460.83,1280.282,447.1,1279.763,430.708ZM1240.7,412.626c-.981-.032-1.905-.08-2.74-.146a.125.125,0,0,1-.047-.006c-.706-.051-1.347-.118-1.9-.2-1.509-.759-3.127-1.848-2.858-2.514l5.188-25.938a16.024,16.024,0,0,1,.537,2.962l0,.036c.411,2.822.892,6.642.873,6.881l.92,12.568.457,6.268.01.1Z" transform="translate(-1201.79 -339.954)"/></g><g transform="translate(478.914 451.414)"><path class="h" d="M1285.274,438.62c30.16,1.609,34.472-2.442,34.472-2.442s2.932-8.488-2.727-41.03-12.6-38.909-12.6-38.909L1260.557,340.2v.1c.044,1.471.222,18.011-12.394,17.11,0,0-.934,15.776-1.881,35.276-.59,12.073-1.184,25.572-1.571,37.641-.524,16.464-.655,30.259.15,34.14,0,0,25.072-4,38.221-1.467a18.552,18.552,0,0,1,4.7,1.467m-.839-50.226h-3.3l.81-11.117.6-8.234c-.027-.391,1.255-10.248,1.416-9.881l5.188,25.94C1292.051,411.936,1288.332,413.851,1286.941,414.247Z" transform="translate(-1244.288 -340.203)"/></g><g class="f" transform="translate(438.118 480.653)"><path d="M1222.79,446.634s34.9.471,36.314,1.414-3.3-92.437-3.3-92.437l1.414,89.607S1228.449,443.8,1222.79,446.634Z" transform="translate(-1222.79 -355.611)"/></g><g transform="translate(437.31 523.033)"><path class="i" d="M1222.364,377.943" transform="translate(-1222.364 -377.943)"/></g><g transform="translate(429.864 522.864)"><path class="j" d="M1218.441,377.854" transform="translate(-1218.441 -377.854)"/></g><g transform="translate(475.035 504.035)"><path class="g" d="M1242.244,367.932" transform="translate(-1242.244 -367.932)"/></g><g class="k" transform="translate(474.197 503.999)"><path class="g" d="M1242.745,367.913l-.943,5.188.707-4.952h0Z" transform="translate(-1241.802 -367.913)"/></g><g class="k" transform="translate(481.271 503.999)"><path class="g" d="M1245.53,367.913l.943,5.188-.708-4.952h0Z" transform="translate(-1245.53 -367.913)"/></g><g class="k" transform="translate(476.083 510.13)"><path class="g" d="M1243.739,371.144l-.943,5.188.708-4.952h0Z" transform="translate(-1242.796 -371.144)"/></g><g class="k" transform="translate(479.385 510.13)"><path class="g" d="M1244.536,371.144l.943,5.188-.708-4.952h0Z" transform="translate(-1244.536 -371.144)"/></g><g class="f" transform="translate(434.387 523.462)"><path d="M1220.872,378.175h-.048v-.006A.127.127,0,0,0,1220.872,378.175Z" transform="translate(-1220.824 -378.169)"/></g><g class="f" transform="translate(435.358 497.811)"><path d="M1225.982,390.413l-2.122-.038-.273-.006-.458-6.268-.92-12.568c.019-.239-.461-4.059-.873-6.881l2.476,13.734v.006Z" transform="translate(-1221.336 -364.652)"/></g><g class="f" transform="translate(515.652 496.689)"><path d="M1263.647,392.868l2.285-.044.295,0,.491-7.01.991-14.054c-.021-.27.5-4.541.937-7.7l-2.665,15.358v.006Z" transform="translate(-1263.647 -364.061)"/></g><g class="f" transform="translate(481.575 549.039)"><path d="M1246.565,391.647l-.875,23.116s32.407-1.22,36.718-.008c0,0-25.467-2.829-33.957-3.3Z" transform="translate(-1245.69 -391.647)"/></g><g transform="translate(469.717 617.896)"><path class="a" d="M1239.644,427.931c1.938.909,3.906,1.839,5.877,2.788l-6.08-2.788Z" transform="translate(-1239.441 -427.931)"/></g><g transform="translate(483.885 618.362)"><path class="a" d="M1253.019,428.181l-6.113,3.217c.909-.5,2.674-1.438,6.1-3.22Z" transform="translate(-1246.907 -428.177)"/></g><g class="f" transform="translate(434.604 602.104)"><path d="M1276.094,445.07c10.936,5.57,17.267,8.7,20.932,10.464-12.644-5.739-46.913-21.431-76.087-35.923.674.288,16.95,7.17,35.314,15.791,1.938.909,3.906,1.839,5.877,2.788C1266.812,440.428,1271.54,442.749,1276.094,445.07Z" transform="translate(-1220.939 -419.61)"/></g><g class="f" transform="translate(510.737 638.053)"><path d="M1266.01,440.792a44.5,44.5,0,0,1-4.953-2.239C1264.1,439.935,1265.877,440.731,1266.01,440.792Z" transform="translate(-1261.057 -438.553)"/></g><g class="f" transform="translate(482.932 596.908)"><path d="M1298.981,416.872C1263,434.746,1246.9,441.882,1246.4,442.1a6.839,6.839,0,0,1,.712-.425c-.1.063-.033.025.241-.127.909-.5,2.674-1.438,6.1-3.22,3.632-1.882,9.135-4.712,17.464-8.957C1295.914,416.635,1298.981,416.872,1298.981,416.872Z" transform="translate(-1246.405 -416.872)"/></g><g transform="translate(513.105 640.638)"><path class="a" d="M1267.493,440.754s18.393-1.886,20.752,0,13.677,9.9,1.886,13.677-27.826-1.416-27.826-1.416Z" transform="translate(-1262.305 -439.915)"/></g><g transform="translate(413.122 641.108)"><path class="a" d="M1237.531,441s-18.393-1.886-20.75,0-13.678,9.9-1.888,13.679,27.826-1.416,27.826-1.416Z" transform="translate(-1209.618 -440.163)"/></g><g transform="translate(590.805 590.452)"><path class="l" d="M1323.175,429.8V462a5.383,5.383,0,0,1-5.382,5.384h-9.162a5.383,5.383,0,0,1-5.382-5.384V429.8a3.552,3.552,0,0,1,.5-2l6.145-13.191h6.631l6.145,13.191A3.568,3.568,0,0,1,1323.175,429.8Z" transform="translate(-1303.249 -412.45)"/><path class="m" d="M1320.154,426.176l.1.11a1.544,1.544,0,0,1,.143.715v25.832c0,1.547-1.57,2.8-3.5,2.8h-9.16c-1.928,0-3.5-1.258-3.5-2.8V427a1.549,1.549,0,0,1,.142-.715l.1-.11s1.509,1.327,7.766,0S1320.154,426.176,1320.154,426.176Z" transform="translate(-1302.358 -402.593)"/><rect class="h" width="7.809" height="2.154" rx="0.256" transform="translate(5.991)"/></g><path class="e" d="M1293.421,306.977s-3.689,4.518-5.693,5.693c-9.906,5.809-40.06,18.561-58.829,9.488,0,0-7.591-16.049-1.9-22.412s18.977-14.848,49.34-10.6,14.132,43.251,14.132,43.251l-2.746-25.416" transform="translate(-782.792 64.348)"/><path class="n" d="M1571.294,176.86V333.667a7.45,7.45,0,0,1-.266,2.068l-3.625,5.2L1409.971,566.154H1280.927L1135.506,341.3l-4.479-6.927a4.251,4.251,0,0,1-.038-.7V183.293l19.717-.285,28.408-.418,15.466-.228,120.409-1.746,13.151-.19,28.978-.436,48.429-.7,147.679-2.163Z" transform="translate(-867.081 -35.422)"/><path class="o" d="M1339.044,383.782l-3.8,58.753a4.844,4.844,0,0,1-1.006,2.96l-.038.038a4.56,4.56,0,0,1-2.524,1.651,4.221,4.221,0,0,1-1.082.133H1218.445a4.651,4.651,0,0,1-2.22-.569,4.876,4.876,0,0,1-2.41-3.72,2.289,2.289,0,0,1-.019-.361v-.133l-3.8-58.753a4.749,4.749,0,0,1,2.714-4.327,3.936,3.936,0,0,1,1.214-.379,3.11,3.11,0,0,1,.722-.076h119.745A4.723,4.723,0,0,1,1339.044,383.782Z" transform="translate(-796.154 146.039)"/><g transform="translate(476.47 556.667)"><ellipse class="p" cx="2.53" cy="2.53" rx="2.53" ry="2.53"/><ellipse class="p" cx="2.53" cy="2.53" rx="2.53" ry="2.53" transform="translate(2.53)"/></g><path class="q" d="M1334.242,445.516a4.523,4.523,0,0,1-2.562,1.632,4.217,4.217,0,0,1-1.082.133H1218.445a4.652,4.652,0,0,1-2.22-.569,4.59,4.59,0,0,1-2.41-3.72,2.288,2.288,0,0,1-.019-.361V442.5l-3.8-58.753a4.749,4.749,0,0,1,2.714-4.327,3.934,3.934,0,0,1,1.214-.379L1334.2,445.5Z" transform="translate(-796.154 146.075)"/><path class="r" d="M1571.294,143.255v227.99a7.45,7.45,0,0,1-.266,2.068,8.375,8.375,0,0,1-3.625,5.2,7.951,7.951,0,0,1-4.345,1.29H1139.226a7.668,7.668,0,0,1-3.719-.93,8.531,8.531,0,0,1-4.479-6.927,4.252,4.252,0,0,1-.038-.7V143.255a3.083,3.083,0,0,1,.019-.417,8.649,8.649,0,0,1,3.985-6.642c.19-.114.38-.209.569-.323a9.574,9.574,0,0,1,1.214-.493c.247-.076.494-.152.74-.209a8.406,8.406,0,0,1,1.708-.171h423.833a8.407,8.407,0,0,1,1.708.171c.247.057.494.133.74.209a9.572,9.572,0,0,1,1.215.493c.19.114.38.209.569.323a8.649,8.649,0,0,1,3.985,6.642A3.064,3.064,0,0,1,1571.294,143.255Z" transform="translate(-867.081 -73)"/><path class="s" d="M1571.3,143.247v27.9H1130.987v-27.9a8.253,8.253,0,0,1,8.247-8.247h423.821A8.253,8.253,0,0,1,1571.3,143.247Z" transform="translate(-867.084 -73)"/><rect class="r" width="368.027" height="21.359" transform="translate(314.835 70.215)"/><ellipse class="t" cx="2.921" cy="2.921" rx="2.921" ry="2.921" transform="translate(273.76 78.795)"/><ellipse class="u" cx="2.921" cy="2.921" rx="2.921" ry="2.921" transform="translate(283.983 78.795)"/><ellipse class="v" cx="2.921" cy="2.921" rx="2.921" ry="2.921" transform="translate(294.206 78.795)"/><rect class="w" width="164.298" height="85.435" rx="2.8" transform="translate(283.618 114.575)"/><rect class="w" width="230.14" height="85.435" rx="3.277" transform="translate(459.375 114.534)"/><rect class="w" width="405.815" height="85.435" rx="4.4" transform="translate(283.618 209.868)"/><rect class="x" width="61.073" height="3.739" rx="0.956" transform="translate(360.838 157.887)"/><rect class="x" width="36.145" height="3.739" rx="0.736" transform="translate(360.838 169.105)"/><rect class="x" width="72.291" height="3.739" rx="0.985" transform="translate(360.838 146.67)"/><rect class="x" width="61.073" height="3.739" rx="0.956" transform="translate(654.931 163.27) rotate(180)"/><rect class="x" width="36.145" height="3.739" rx="0.736" transform="translate(654.931 174.487) rotate(180)"/><rect class="x" width="72.291" height="3.739" rx="0.985" transform="translate(654.931 152.052) rotate(180)"/><g transform="translate(308.263 232.104)"><rect class="x" width="72.291" height="3.739" rx="0.985"/><rect class="x" width="72.291" height="3.739" rx="0.985" transform="translate(0 19.716)"/><rect class="x" width="72.291" height="3.739" rx="0.985" transform="translate(0 39.431)"/></g><g transform="translate(447.094 232.104)"><rect class="x" width="72.291" height="3.739" rx="0.985"/><rect class="x" width="72.291" height="3.739" rx="0.985" transform="translate(0 19.716)"/><rect class="x" width="72.291" height="3.739" rx="0.985" transform="translate(0 39.431)"/></g><g transform="translate(585.926 235.391)"><rect class="x" width="72.291" height="3.739" rx="0.985"/><rect class="x" width="72.291" height="3.739" rx="0.985" transform="translate(0 19.716)"/><rect class="x" width="72.291" height="3.739" rx="0.985" transform="translate(0 39.431)"/></g><ellipse class="x" cx="7.745" cy="7.745" rx="7.745" ry="7.745" transform="translate(312.018 139.22)"/><path class="x" d="M7.147,0H23.834a7.147,7.147,0,0,1,7.147,7.147V19.794a0,0,0,0,1,0,0H0a0,0,0,0,1,0,0V7.147A7.147,7.147,0,0,1,7.147,0Z" transform="translate(304.272 155.571)"/><ellipse class="y" cx="27.931" cy="27.931" rx="27.931" ry="27.931" transform="translate(486.525 130.184)"/><path class="z" d="M1257.389,189.967l8.215,8.215,16.43-16.43" transform="translate(-753.612 -31.031)"/><path class="aa" d="M113.829,3348.987s49.66-2.181,57.366,38.917,47.092,54.8,47.092,54.8" transform="translate(131.171 -2981.132)"/><path class="aa" d="M218.287,3348.987s-49.66-2.181-57.366,38.917-47.092,54.8-47.092,54.8" transform="translate(497.384 -2981.132)"/><path class="aa" d="M142.98,3484.28s35.961,13.7,41.1,41.954,47.948,29.968,47.948,29.968" transform="translate(120 -3032.984)"/><path class="aa" d="M232.027,3484.28s-35.961,13.7-41.1,41.954S142.98,3556.2,142.98,3556.2" transform="translate(465.664 -3032.984)"/></g></svg>