<svg xmlns="http://www.w3.org/2000/svg" width="44.985" height="44.985" viewBox="0 0 44.985 44.985"><defs><style>.a{fill:rgba(255,255,255,0);}.a,.b,.c{fill-rule:evenodd;}.c{fill:#fff;}</style></defs><path class="a" d="M0,0H44.985V44.985H0Z"/><path class="b" d="M16.564,73.849H13.1V84.013h4.313a4.57,4.57,0,0,0,4.711-4.934C22.12,75.345,19.709,73.849,16.564,73.849Z" transform="translate(-10.04 -56.614)"/><path class="c" d="M27.9,91.417H27.69V87.481H27.9a1.968,1.968,0,1,1,0,3.936Z" transform="translate(-21.228 -67.065)"/><path class="b" d="M60.39,78.8l2.933-4.947H59.607l-1.641,3.262a4.15,4.15,0,0,0-.472,1.146h-.075l.075-4.408H54.175V84.013h3.319l-.075-4.26h.075a4.7,4.7,0,0,0,.572,1.187l1.616,3.073h3.953Zm4.02-4.947h3.269l3.058,5.635h.1A16.478,16.478,0,0,1,70.55,76.9V73.849h3.256V84.013H70.55l-3-5.338h-.1a12.888,12.888,0,0,1,.211,2.036v3.3H64.41Zm13.87,0L79.324,76.5h.1c.1-.323.186-.647.311-.957l.671-1.7h3.828l-3.207,5.783v4.381H77.7V79.632l-3.269-5.783Z" transform="translate(-41.532 -56.614)"/></svg>