<svg xmlns="http://www.w3.org/2000/svg" width="57.796" height="22.438" viewBox="0 0 57.796 22.438"><defs><style>.a{fill:#fff;}</style></defs><g transform="translate(-1883.274 -374.824)"><g transform="translate(1883.274 374.824)"><path class="a" d="M1884.643,383.749a2.256,2.256,0,0,1-1.347-2.394,2.223,2.223,0,0,1,2.119-1.916c.421-.012.842-.012,1.263,0a.419.419,0,0,0,.358-.181,10.766,10.766,0,0,1,6.6-3.695,10.936,10.936,0,0,1,10.528,3.944,10.578,10.578,0,0,1,2.5,6.164,11.212,11.212,0,0,1-21.479,5.351,11.064,11.064,0,0,1-.568-7.14C1884.632,383.844,1884.635,383.8,1884.643,383.749Zm10.882-5.4a8.256,8.256,0,1,0,8.247,8.32A8.244,8.244,0,0,0,1895.525,378.351Z" transform="translate(-1883.274 -375.381)"/><path class="a" d="M2563.333,385.865a11.212,11.212,0,0,1,19.681-7.173.5.5,0,0,0,.431.19c.379-.011.758-.009,1.137,0a2.229,2.229,0,0,1,2.172,2.139,2.19,2.19,0,0,1-1.934,2.3c-.76.074-1.53.054-2.3.059-.069,0-.171-.111-.2-.192a8.28,8.28,0,1,0-.231,6.241c.145-.33.251-.678.387-1.012a1.454,1.454,0,0,1,1.673-.855,1.41,1.41,0,0,1,1.134,1.563,6.439,6.439,0,0,1-.515,1.523,11.037,11.037,0,0,1-7.167,6.176,11.211,11.211,0,0,1-14.27-10.954Z" transform="translate(-2528.961 -374.824)"/><path class="a" d="M2422.062,493.3c0-2.181,0-4.363,0-6.544a3.092,3.092,0,0,1,.085-.7,1.641,1.641,0,0,1,3.157-.025,2.317,2.317,0,0,1,.077.572q.006,6.569,0,13.139a1.715,1.715,0,0,1-.973,1.716,1.647,1.647,0,0,1-2.349-1.54C2422.057,497.717,2422.062,495.51,2422.062,493.3Z" transform="translate(-2394.829 -479.295)"/><path class="a" d="M2423.109,379.392a1.692,1.692,0,0,1-1.691-1.681,1.7,1.7,0,1,1,3.395.012A1.692,1.692,0,0,1,2423.109,379.392Z" transform="translate(-2394.219 -375.947)"/></g></g></svg>