<svg xmlns="http://www.w3.org/2000/svg" width="22.872" height="28.646" viewBox="0 0 22.872 28.646"><defs><style>.a{fill:#fff;}</style></defs><g transform="translate(0 0)"><g transform="translate(3.369 0)"><path class="a" d="M1167.474,271.352a8.068,8.068,0,1,1,8.066-8.068A8.077,8.077,0,0,1,1167.474,271.352Zm0-13.473a5.406,5.406,0,1,0,5.4,5.405A5.413,5.413,0,0,0,1167.474,257.879Z" transform="translate(-1159.406 -255.217)"/></g><g transform="translate(0 13.473)"><path class="a" d="M1177.431,280.513h-18.242a2.317,2.317,0,0,1-2.314-2.315v-1.423a11.436,11.436,0,0,1,22.872,0V278.2A2.318,2.318,0,0,1,1177.431,280.513Zm-17.895-2.662h17.549v-1.075a8.775,8.775,0,0,0-17.549,0Z" transform="translate(-1156.875 -265.34)"/></g></g></svg>