<svg xmlns="http://www.w3.org/2000/svg" width="110.252" height="42.802" viewBox="0 0 110.252 42.802"><defs><style>.a{fill:#2b2b2b;}</style></defs><g transform="translate(-1883.274 -374.824)"><g transform="translate(1883.274 374.824)"><path class="a" d="M1885.886,391.317a4.3,4.3,0,0,1-2.569-4.567,4.24,4.24,0,0,1,4.042-3.655q1.2-.034,2.409,0a.8.8,0,0,0,.683-.345,20.535,20.535,0,0,1,12.594-7.048,20.863,20.863,0,0,1,20.083,7.524,20.18,20.18,0,0,1,4.776,11.758,21.388,21.388,0,0,1-40.974,10.207,21.105,21.105,0,0,1-1.083-13.62C1885.866,391.5,1885.871,391.419,1885.886,391.317Zm20.758-10.3a15.749,15.749,0,1,0,15.733,15.87A15.727,15.727,0,0,0,1906.644,381.019Z" transform="translate(-1883.274 -375.354)"/><path class="a" d="M2563.333,395.886a21.389,21.389,0,0,1,37.543-13.683.943.943,0,0,0,.823.362c.723-.022,1.446-.018,2.168,0a4.253,4.253,0,0,1,4.145,4.08,4.179,4.179,0,0,1-3.69,4.383c-1.45.141-2.918.1-4.378.113-.131,0-.326-.212-.385-.367a15.794,15.794,0,1,0-.442,11.905c.276-.63.48-1.293.739-1.931a2.773,2.773,0,0,1,3.19-1.631,2.69,2.69,0,0,1,2.163,2.981,12.276,12.276,0,0,1-.983,2.9,21.052,21.052,0,0,1-13.672,11.782,21.386,21.386,0,0,1-27.22-20.9Z" transform="translate(-2497.765 -374.824)"/><path class="a" d="M2422.064,500.97c0-4.161-.005-8.322.007-12.484a5.882,5.882,0,0,1,.162-1.333,3.131,3.131,0,0,1,6.022-.047,4.429,4.429,0,0,1,.148,1.092q.012,12.532,0,25.064a3.272,3.272,0,0,1-1.857,3.273,3.141,3.141,0,0,1-4.481-2.937C2422.053,509.389,2422.064,505.179,2422.064,500.97Z" transform="translate(-2370.114 -474.247)"/><path class="a" d="M2424.644,382.464a3.228,3.228,0,0,1-3.227-3.207,3.238,3.238,0,1,1,6.476.022A3.227,3.227,0,0,1,2424.644,382.464Z" transform="translate(-2369.532 -375.893)"/></g></g></svg>