<svg xmlns="http://www.w3.org/2000/svg" width="29.629" height="31.971" viewBox="0 0 29.629 31.971"><defs><style>.a{fill:#fff;}</style></defs><g transform="translate(0 0)"><g transform="translate(0 0)"><path class="a" d="M1107.788,287.929h-24.674a2.481,2.481,0,0,1-2.478-2.479V258.437a2.481,2.481,0,0,1,2.478-2.479h24.674a2.481,2.481,0,0,1,2.478,2.479V285.45A2.481,2.481,0,0,1,1107.788,287.929Zm-24.382-2.77H1107.5V258.728h-24.089Z" transform="translate(-1080.637 -255.958)"/></g><g transform="translate(5.046 9.638)"><path class="a" d="M1102.779,264.994h-17.46a1.039,1.039,0,1,1,0-2.077h17.46a1.039,1.039,0,1,1,0,2.077Z" transform="translate(-1084.28 -262.917)"/></g><g transform="translate(7.732 16.274)"><path class="a" d="M1099.346,269.785h-12.087a1.039,1.039,0,0,1,0-2.077h12.087a1.039,1.039,0,0,1,0,2.077Z" transform="translate(-1086.22 -267.708)"/></g></g></svg>