<svg xmlns="http://www.w3.org/2000/svg" width="26.816" height="28.933" viewBox="0 0 26.816 28.933"><defs><style>.a{fill:#fff;}</style></defs><g transform="translate(0 0)"><g transform="translate(10.588 6.319)"><path class="a" d="M1230.5,265.214a.609.609,0,0,1-.863,0l-1.265-1.263a.627.627,0,0,1,.886-.887l.811.811,2.69-2.691a.627.627,0,1,1,.886.887Z" transform="translate(-1228.188 -261)"/></g><g transform="translate(0 0)"><path class="a" d="M1244.313,284.891h-22.331a2.246,2.246,0,0,1-2.243-2.244V258.2a2.246,2.246,0,0,1,2.243-2.243h22.331a2.246,2.246,0,0,1,2.243,2.243v24.446A2.246,2.246,0,0,1,1244.313,284.891Zm-22.067-2.507h21.8V258.465h-21.8Z" transform="translate(-1219.74 -255.958)"/></g><g transform="translate(4.569 20.002)"><path class="a" d="M1240.124,273.8h-15.8a.94.94,0,1,1,0-1.88h15.8a.94.94,0,0,1,0,1.88Z" transform="translate(-1223.385 -271.917)"/></g><g transform="translate(6.999 14.727)"><path class="a" d="M1237.2,269.588h-10.938a.94.94,0,1,1,0-1.88H1237.2a.94.94,0,1,1,0,1.88Z" transform="translate(-1225.324 -267.708)"/></g></g></svg>