<svg xmlns="http://www.w3.org/2000/svg" width="40.302" height="27.375" viewBox="0 0 40.302 27.375"><defs><style>.a{fill:#fff;}</style></defs><g transform="translate(0 0)"><g transform="translate(4.847 0)"><path class="a" d="M1031.553,280.66h-13.259a2.811,2.811,0,0,1-2.588-1.706L1008.14,261.3l-3.255-.029a1.385,1.385,0,0,1,0-2.77h3.211a2.815,2.815,0,0,1,2.59,1.706l7.565,17.655,13.3.029,4.632-13.789-14.68-.061a1.385,1.385,0,0,1,0-2.77h14.634a2.816,2.816,0,0,1,2.673,3.706l-4.587,13.759A2.812,2.812,0,0,1,1031.553,280.66Z" transform="translate(-1003.5 -258.5)"/></g><ellipse class="a" cx="1.753" cy="1.753" rx="1.753" ry="1.753" transform="translate(13.85 23.87)"/><ellipse class="a" cx="1.753" cy="1.753" rx="1.753" ry="1.753" transform="translate(35.274 23.87)"/><g transform="translate(0 9.003)"><path class="a" d="M1005.54,267.77h-4.155a1.385,1.385,0,0,1,0-2.77h4.155a1.385,1.385,0,0,1,0,2.77Z" transform="translate(-1000 -265)"/></g><g transform="translate(4.155 14.543)"><path class="a" d="M1008.54,271.77h-4.155a1.385,1.385,0,0,1,0-2.77h4.155a1.385,1.385,0,0,1,0,2.77Z" transform="translate(-1003 -269)"/></g></g></svg>