<svg xmlns="http://www.w3.org/2000/svg" width="66.043" height="66.043" viewBox="0 0 66.043 66.043"><defs><style>.a,.b{fill:#03a5a5;}.a{opacity:0.1;}</style></defs><g transform="translate(-303 -170)"><path class="a" d="M33.022,0A33.022,33.022,0,1,1,0,33.022,33.022,33.022,0,0,1,33.022,0Z" transform="translate(303 170)"/><path class="b" d="M30.023,5.915,26.786.748A1.6,1.6,0,0,0,25.435,0H5.287A1.6,1.6,0,0,0,3.936.748L.7,5.915a4.449,4.449,0,0,0,2.932,6.8,5.183,5.183,0,0,0,.683.045A4.924,4.924,0,0,0,8,11.111a4.928,4.928,0,0,0,7.361,0,4.928,4.928,0,0,0,7.361,0,4.941,4.941,0,0,0,3.68,1.651,5.127,5.127,0,0,0,.683-.045A4.444,4.444,0,0,0,30.023,5.915Zm-3.616,8.448a6.327,6.327,0,0,1-1.471-.19V19.15H5.786V14.173a6.607,6.607,0,0,1-1.471.19,6.729,6.729,0,0,1-.9-.06,6.271,6.271,0,0,1-.818-.18v9.814a1.594,1.594,0,0,0,1.6,1.6H26.537a1.594,1.594,0,0,0,1.6-1.6V14.123a5.092,5.092,0,0,1-.818.18A6.935,6.935,0,0,1,26.407,14.362Z" transform="translate(320.881 190.439)"/></g></svg>