<svg xmlns="http://www.w3.org/2000/svg" width="29.777" height="29.778" viewBox="0 0 29.777 29.778"><defs><style>.a{fill:#fff;}</style></defs><g transform="translate(0)"><g transform="translate(0)"><path class="a" d="M983.57,270.908h-8.483a2.34,2.34,0,0,1-2.337-2.337v-8.483a2.34,2.34,0,0,1,2.337-2.338h8.483a2.34,2.34,0,0,1,2.338,2.338v8.483A2.34,2.34,0,0,1,983.57,270.908Zm-8.483-11.08a.26.26,0,0,0-.259.26v8.483a.26.26,0,0,0,.259.259h8.483a.26.26,0,0,0,.26-.259v-8.483a.26.26,0,0,0-.26-.26Z" transform="translate(-972.75 -257.75)"/></g><g transform="translate(16.62)"><path class="a" d="M995.57,270.908h-8.483a2.34,2.34,0,0,1-2.337-2.337v-8.483a2.34,2.34,0,0,1,2.337-2.338h8.483a2.34,2.34,0,0,1,2.338,2.338v8.483A2.34,2.34,0,0,1,995.57,270.908Zm-8.483-11.08a.26.26,0,0,0-.259.26v8.483a.259.259,0,0,0,.259.259h8.483a.26.26,0,0,0,.26-.259v-8.483a.26.26,0,0,0-.26-.26Z" transform="translate(-984.75 -257.75)"/></g><g transform="translate(0 16.62)"><path class="a" d="M983.57,282.907h-8.483a2.34,2.34,0,0,1-2.337-2.336v-8.483a2.34,2.34,0,0,1,2.337-2.338h8.483a2.34,2.34,0,0,1,2.338,2.338v8.483A2.34,2.34,0,0,1,983.57,282.907Zm-8.483-11.08a.26.26,0,0,0-.259.26v8.483a.26.26,0,0,0,.259.259h8.483a.26.26,0,0,0,.26-.259v-8.483a.26.26,0,0,0-.26-.26Z" transform="translate(-972.75 -269.75)"/></g><g transform="translate(16.62 16.62)"><path class="a" d="M995.57,282.907h-8.483a2.34,2.34,0,0,1-2.337-2.336v-8.483a2.34,2.34,0,0,1,2.337-2.338h8.483a2.34,2.34,0,0,1,2.338,2.338v8.483A2.34,2.34,0,0,1,995.57,282.907Zm-8.483-11.08a.26.26,0,0,0-.259.26v8.483a.259.259,0,0,0,.259.259h8.483a.26.26,0,0,0,.26-.259v-8.483a.26.26,0,0,0-.26-.26Z" transform="translate(-984.75 -269.75)"/></g></g></svg>