<svg xmlns="http://www.w3.org/2000/svg" width="36.333" height="22" viewBox="0 0 36.333 22"><defs><style>.a{fill:#2b2b2b;}</style></defs><g transform="translate(-4.5 -10.125)"><path class="a" d="M39.32,13.268H6.014A1.548,1.548,0,0,1,4.5,11.7h0a1.548,1.548,0,0,1,1.514-1.571H39.32A1.548,1.548,0,0,1,40.833,11.7h0A1.548,1.548,0,0,1,39.32,13.268Z" transform="translate(0 0)"/><path class="a" d="M39.32,20.018H6.014A1.548,1.548,0,0,1,4.5,18.446h0a1.548,1.548,0,0,1,1.514-1.571H39.32a1.548,1.548,0,0,1,1.514,1.571h0A1.548,1.548,0,0,1,39.32,20.018Z" transform="translate(0 2.679)"/><path class="a" d="M39.32,26.768H6.014A1.548,1.548,0,0,1,4.5,25.2h0a1.548,1.548,0,0,1,1.514-1.571H39.32A1.548,1.548,0,0,1,40.833,25.2h0A1.548,1.548,0,0,1,39.32,26.768Z" transform="translate(0 5.357)"/></g></svg>