<svg xmlns="http://www.w3.org/2000/svg" width="25.461" height="31.868" viewBox="0 0 25.461 31.868"><defs><style>.a{fill:#2b2b2b;}</style></defs><g transform="translate(-6.775 -3.93)"><path class="a" d="M21.122,28.336a1.032,1.032,0,0,0-1.012.812,2,2,0,0,1-.4.868,1.505,1.505,0,0,1-1.282.47,1.53,1.53,0,0,1-1.282-.47,2,2,0,0,1-.4-.868,1.032,1.032,0,0,0-1.012-.812h0A1.039,1.039,0,0,0,14.726,29.6a3.559,3.559,0,0,0,3.7,2.955,3.552,3.552,0,0,0,3.7-2.955,1.043,1.043,0,0,0-1.012-1.266Z" transform="translate(1.053 3.241)"/><path class="a" d="M31.916,27.531c-1.227-1.617-3.64-2.565-3.64-9.8,0-7.431-3.282-10.418-6.34-11.135-.287-.072-.494-.167-.494-.47V5.89A1.954,1.954,0,0,0,19.53,3.93h-.048A1.954,1.954,0,0,0,17.571,5.89v.231c0,.295-.207.4-.494.47-3.067.725-6.34,3.7-6.34,11.135,0,7.24-2.413,8.18-3.64,9.8a1.581,1.581,0,0,0,1.266,2.533h22.31A1.582,1.582,0,0,0,31.916,27.531Zm-3.106.462H10.235a.349.349,0,0,1-.263-.581,9.649,9.649,0,0,0,1.673-2.66,18.05,18.05,0,0,0,1.139-7.025,12.215,12.215,0,0,1,1.665-6.914,5.111,5.111,0,0,1,3.082-2.2,2.791,2.791,0,0,0,1.481-.836.63.63,0,0,1,.948-.016,2.886,2.886,0,0,0,1.5.852,5.111,5.111,0,0,1,3.082,2.2,12.215,12.215,0,0,1,1.665,6.914,18.05,18.05,0,0,0,1.139,7.025,9.76,9.76,0,0,0,1.712,2.7A.329.329,0,0,1,28.81,27.993Z" transform="translate(0)"/></g></svg>